# xmcd
#
# Track frame offsets: 
#        150
#        23862
#        45209
#        69567
#        100468
#        118594
#        139533
#        158359
#        184163
#        207166
#        247985
#
# Disc length: 3341 seconds
#
# Revision: 0
# Processed by: cddbd v1.5.2PL0 Copyright (c) Steve Scherf et al.
# Submitted via: ExactAudioCopy v0.99pb5
#
DISCID=880d0b0b
DTITLE=Dan Beaver And His Dam Blues Band - Last Call
DYEAR=2005
DGENRE=Blues
TTITLE0=She's Tuff
TTITLE1=The Rain
TTITLE2=Going Down Slow
TTITLE3=Howlin' Wolf
TTITLE4=Shake That Boogie
TTITLE5=For What It's Worth
TTITLE6=Bo Diddley
TTITLE7=Gimme One Reason
TTITLE8=Think
TTITLE9=If I Can Hold You
TTITLE10=Bonus Track
EXTD=
EXTT0=
EXTT1=
EXTT2=
EXTT3=
EXTT4=
EXTT5=
EXTT6=
EXTT7=
EXTT8=
EXTT9=
EXTT10=
PLAYORDER=
